<svg xmlns="http://www.w3.org/2000/svg" width="1600" height="900" viewBox="0 0 1600 900">
<defs>
<linearGradient id="bg" x1="0" y1="0" x2="1" y2="1">
<stop offset="0%" stop-color="#06101f"/><stop offset="100%" stop-color="#101827"/>
</linearGradient>
<filter id="shadow"><feDropShadow dx="0" dy="8" stdDeviation="10" flood-color="#000" flood-opacity=".35"/></filter>
<marker id="arrow" markerWidth="12" markerHeight="12" refX="10" refY="6" orient="auto">
<path d="M2,2 L10,6 L2,10 Z" fill="#38bdf8"/></marker>
<style>
.bg{fill:url(#bg)} .title{font-family:Arial,sans-serif;font-size:46px;font-weight:800;fill:#f8fafc}
.sub{font-family:Arial,sans-serif;font-size:22px;fill:#cbd5e1}
.h{font-family:Arial,sans-serif;font-size:23px;font-weight:800;fill:#e2e8f0}
.t{font-family:Arial,sans-serif;font-size:21px;font-weight:700;fill:#f8fafc}
.s{font-family:Arial,sans-serif;font-size:17px;fill:#cbd5e1}
.xs{font-family:Arial,sans-serif;font-size:14px;fill:#94a3b8}
.card{fill:#111c31;stroke:#334155;stroke-width:1.5;filter:url(#shadow)}
.blue{fill:#0f2342;stroke:#38bdf8;stroke-width:2.2;filter:url(#shadow)}
.green{fill:#10251d;stroke:#34d399;stroke-width:2.2;filter:url(#shadow)}
.purple{fill:#1c1838;stroke:#a78bfa;stroke-width:2.2;filter:url(#shadow)}
.orange{fill:#2a1b0b;stroke:#f59e0b;stroke-width:2.2;filter:url(#shadow)}
.red{fill:#2a1016;stroke:#fb7185;stroke-width:2.2;filter:url(#shadow)}
.line{stroke:#38bdf8;stroke-width:3;fill:none;marker-end:url(#arrow)}
.muted{stroke:#94a3b8;stroke-width:2.2;fill:none;marker-end:url(#arrow);opacity:.8}
.chip{fill:#0b1220;stroke:#475569;stroke-width:1}
.chipt{font-family:Arial,sans-serif;font-size:15px;fill:#cbd5e1}
</style>
</defs>
<rect class="bg" width="1600" height="900"/><circle cx="1430" cy="110" r="250" fill="#1d4ed8" opacity=".12"/><circle cx="180" cy="790" r="270" fill="#7c3aed" opacity=".10"/><text x="80" y="78" class="title">Mapa Geral do Ecossistema</text><text x="80" y="126" class="sub">Produtos complementares para operar cognição distribuída com governança</text><rect x="610" y="150" width="380" height="100" rx="22" class="blue"/><text x="634" y="192" class="t">PKGL</text><text x="634" y="222" class="s">Knowledge Governance Layer</text><rect x="160" y="330" width="330" height="110" rx="22" class="green"/><text x="184" y="372" class="t">MAS-HITL</text><text x="184" y="402" class="s">Multi-Agent Execution</text><text x="184" y="426" class="s">HITL · validação · handoff</text><rect x="625" y="330" width="350" height="110" rx="22" class="purple"/><text x="649" y="372" class="t">DIR</text><text x="649" y="402" class="s">Dynamic Cognitive Routing</text><text x="649" y="426" class="s">estado · risco · scoring</text><rect x="1110" y="330" width="330" height="110" rx="22" class="orange"/><text x="1134" y="372" class="t">OR-OmniRouter</text><text x="1134" y="402" class="s">Inference Control Plane</text><text x="1134" y="426" class="s">aliases · fallback · custos</text><rect x="1110" y="560" width="330" height="110" rx="22" class="card"/><text x="1134" y="602" class="t">Providers</text><text x="1134" y="632" class="s">local · free · paid · premium</text><rect x="160" y="560" width="330" height="110" rx="22" class="blue"/><text x="184" y="602" class="t">open-webui-custom</text><text x="184" y="632" class="s">Unified Experience Hub</text><text x="184" y="656" class="s">chat · agents · workflows</text><rect x="625" y="690" width="350" height="90" rx="22" class="red"/><text x="649" y="732" class="t">HYDRA-OBS</text><text x="649" y="762" class="s">Observabilidade cognitiva</text><line x1="785" y1="250" x2="785" y2="325" class="line"/><line x1="490" y1="385" x2="620" y2="385" class="line"/><line x1="975" y1="385" x2="1105" y2="385" class="line"/><line x1="1275" y1="440" x2="1275" y2="555" class="line"/><path d="M325,560 C325,505 325,495 325,445" class="muted"/><path d="M490,615 C560,615 560,385 620,385" class="muted"/><path d="M785,690 C785,610 785,500 785,445" class="muted"/><path d="M610,200 C430,220 340,290 325,330" class="muted"/><path d="M990,200 C1160,220 1265,290 1275,330" class="muted"/><rect x="210" y="815" width="114" height="32" rx="16" class="chip"/><text x="223" y="837" class="chipt">experiência</text><rect x="400" y="815" width="90" height="32" rx="16" class="chip"/><text x="413" y="837" class="chipt">execução</text><rect x="590" y="815" width="90" height="32" rx="16" class="chip"/><text x="603" y="837" class="chipt">decisão</text><rect x="780" y="815" width="106" height="32" rx="16" class="chip"/><text x="793" y="837" class="chipt">inferência</text><rect x="970" y="815" width="122" height="32" rx="16" class="chip"/><text x="983" y="837" class="chipt">conhecimento</text><rect x="1160" y="815" width="90" height="32" rx="16" class="chip"/><text x="1173" y="837" class="chipt">operação</text></svg>