<svg xmlns="http://www.w3.org/2000/svg" width="1600" height="900" viewBox="0 0 1600 900">
<defs>
<linearGradient id="bg" x1="0" y1="0" x2="1" y2="1">
<stop offset="0%" stop-color="#06101f"/><stop offset="100%" stop-color="#101827"/>
</linearGradient>
<filter id="shadow"><feDropShadow dx="0" dy="8" stdDeviation="10" flood-color="#000" flood-opacity=".35"/></filter>
<marker id="arrow" markerWidth="12" markerHeight="12" refX="10" refY="6" orient="auto">
<path d="M2,2 L10,6 L2,10 Z" fill="#38bdf8"/></marker>
<style>
.bg{fill:url(#bg)} .title{font-family:Arial,sans-serif;font-size:46px;font-weight:800;fill:#f8fafc}
.sub{font-family:Arial,sans-serif;font-size:22px;fill:#cbd5e1}
.h{font-family:Arial,sans-serif;font-size:23px;font-weight:800;fill:#e2e8f0}
.t{font-family:Arial,sans-serif;font-size:21px;font-weight:700;fill:#f8fafc}
.s{font-family:Arial,sans-serif;font-size:17px;fill:#cbd5e1}
.xs{font-family:Arial,sans-serif;font-size:14px;fill:#94a3b8}
.card{fill:#111c31;stroke:#334155;stroke-width:1.5;filter:url(#shadow)}
.blue{fill:#0f2342;stroke:#38bdf8;stroke-width:2.2;filter:url(#shadow)}
.green{fill:#10251d;stroke:#34d399;stroke-width:2.2;filter:url(#shadow)}
.purple{fill:#1c1838;stroke:#a78bfa;stroke-width:2.2;filter:url(#shadow)}
.orange{fill:#2a1b0b;stroke:#f59e0b;stroke-width:2.2;filter:url(#shadow)}
.red{fill:#2a1016;stroke:#fb7185;stroke-width:2.2;filter:url(#shadow)}
.line{stroke:#38bdf8;stroke-width:3;fill:none;marker-end:url(#arrow)}
.muted{stroke:#94a3b8;stroke-width:2.2;fill:none;marker-end:url(#arrow);opacity:.8}
.chip{fill:#0b1220;stroke:#475569;stroke-width:1}
.chipt{font-family:Arial,sans-serif;font-size:15px;fill:#cbd5e1}
</style>
</defs>
<rect class="bg" width="1600" height="900"/><circle cx="1430" cy="110" r="250" fill="#1d4ed8" opacity=".12"/><circle cx="180" cy="790" r="270" fill="#7c3aed" opacity=".10"/><text x="80" y="78" class="title">DIR + OmniRouter</text><text x="80" y="126" class="sub">Aliases funcionais e cognitivos convergindo para inferência contínua</text><text x="130" y="180" class="h">Modo 1 — Uso direto / funcional</text><rect x="100" y="220" width="360" height="90" rx="22" class="blue"/><text x="124" y="262" class="t">OpenWebUI / IDE / App</text><text x="124" y="292" class="s">consome um alias funcional</text><rect x="100" y="360" width="360" height="120" rx="22" class="green"/><text x="124" y="402" class="t">Alias funcional</text><text x="124" y="432" class="s">coding-agent</text><text x="124" y="456" class="s">simple-chat · summarizer</text><line x1="280" y1="310" x2="280" y2="355" class="line"/><text x="1000" y="180" class="h">Modo 2 — Uso dinâmico / cognitivo</text><rect x="1040" y="220" width="360" height="90" rx="22" class="blue"/><text x="1064" y="262" class="t">Usuário / Agente</text><text x="1064" y="292" class="s">solicitação contextual</text><rect x="1040" y="340" width="360" height="100" rx="22" class="purple"/><text x="1064" y="382" class="t">DIR</text><text x="1064" y="412" class="s">classificação · risco · estado</text><rect x="1040" y="470" width="360" height="120" rx="22" class="green"/><text x="1064" y="512" class="t">Alias cognitivo</text><text x="1064" y="542" class="s">state-complex</text><text x="1064" y="566" class="s">state-sensitive · state-critical</text><line x1="1220" y1="310" x2="1220" y2="335" class="line"/><line x1="1220" y1="440" x2="1220" y2="465" class="line"/><rect x="575" y="300" width="450" height="135" rx="22" class="orange"/><text x="599" y="342" class="t">OR-OmniRouter</text><text x="599" y="372" class="s">Inference Control Plane</text><text x="599" y="396" class="s">policy engine · cascata · fallback</text><path d="M460,420 C510,420 520,365 570,365" class="line"/><path d="M1040,530 C980,530 1010,365 1030,365" class="line"/><rect x="575" y="510" width="450" height="90" rx="22" class="card"/><text x="599" y="552" class="t">Cascata Operacional</text><text x="599" y="582" class="s">local → free → paid → premium</text><line x1="800" y1="435" x2="800" y2="505" class="line"/><rect x="170" y="680" width="300" height="90" rx="22" class="blue"/><text x="194" y="722" class="t">Local</text><text x="194" y="752" class="s">LM Studio · Ollama · vLLM</text><rect x="650" y="680" width="300" height="90" rx="22" class="purple"/><text x="674" y="722" class="t">Cloud / Free</text><text x="674" y="752" class="s">Groq · Gemini · Mistral</text><rect x="1130" y="680" width="300" height="90" rx="22" class="red"/><text x="1154" y="722" class="t">Paid / Premium</text><text x="1154" y="752" class="s">DeepSeek · Claude · OpenAI</text><path d="M800,600 C800,640 320,630 320,675" class="line"/><line x1="800" y1="600" x2="800" y2="675" class="line"/><path d="M800,600 C800,640 1280,630 1280,675" class="line"/></svg>