<svg xmlns="http://www.w3.org/2000/svg" width="1600" height="900" viewBox="0 0 1600 900">
<defs>
<linearGradient id="bg" x1="0" y1="0" x2="1" y2="1">
<stop offset="0%" stop-color="#06101f"/><stop offset="100%" stop-color="#101827"/>
</linearGradient>
<filter id="shadow"><feDropShadow dx="0" dy="8" stdDeviation="10" flood-color="#000" flood-opacity=".35"/></filter>
<marker id="arrow" markerWidth="12" markerHeight="12" refX="10" refY="6" orient="auto">
<path d="M2,2 L10,6 L2,10 Z" fill="#38bdf8"/></marker>
<style>
.bg{fill:url(#bg)} .title{font-family:Arial,sans-serif;font-size:46px;font-weight:800;fill:#f8fafc}
.sub{font-family:Arial,sans-serif;font-size:22px;fill:#cbd5e1}
.h{font-family:Arial,sans-serif;font-size:23px;font-weight:800;fill:#e2e8f0}
.t{font-family:Arial,sans-serif;font-size:21px;font-weight:700;fill:#f8fafc}
.s{font-family:Arial,sans-serif;font-size:17px;fill:#cbd5e1}
.xs{font-family:Arial,sans-serif;font-size:14px;fill:#94a3b8}
.card{fill:#111c31;stroke:#334155;stroke-width:1.5;filter:url(#shadow)}
.blue{fill:#0f2342;stroke:#38bdf8;stroke-width:2.2;filter:url(#shadow)}
.green{fill:#10251d;stroke:#34d399;stroke-width:2.2;filter:url(#shadow)}
.purple{fill:#1c1838;stroke:#a78bfa;stroke-width:2.2;filter:url(#shadow)}
.orange{fill:#2a1b0b;stroke:#f59e0b;stroke-width:2.2;filter:url(#shadow)}
.red{fill:#2a1016;stroke:#fb7185;stroke-width:2.2;filter:url(#shadow)}
.line{stroke:#38bdf8;stroke-width:3;fill:none;marker-end:url(#arrow)}
.muted{stroke:#94a3b8;stroke-width:2.2;fill:none;marker-end:url(#arrow);opacity:.8}
.chip{fill:#0b1220;stroke:#475569;stroke-width:1}
.chipt{font-family:Arial,sans-serif;font-size:15px;fill:#cbd5e1}
</style>
</defs>
<rect class="bg" width="1600" height="900"/><circle cx="1430" cy="110" r="250" fill="#1d4ed8" opacity=".12"/><circle cx="180" cy="790" r="270" fill="#7c3aed" opacity=".10"/><text x="80" y="78" class="title">Lifecycle e Observabilidade Cognitiva</text><text x="80" y="126" class="sub">Governar conhecimento, inferência e operação ao longo do tempo</text><rect x="650.0" y="105.0" width="300" height="100" rx="22" class="blue"/><text x="674.0" y="147.0" class="t">Active</text><text x="674.0" y="177.0" class="s">contexto útil no presente</text><rect x="901.1473670974872" y="250.0" width="300" height="100" rx="22" class="green"/><text x="925.1473670974872" y="292.0" class="t">Consolidated</text><text x="925.1473670974872" y="322.0" class="s">sínteses validadas</text><rect x="901.1473670974872" y="540.0" width="300" height="100" rx="22" class="purple"/><text x="925.1473670974872" y="582.0" class="t">Distilled</text><text x="925.1473670974872" y="612.0" class="s">padrões reutilizáveis</text><rect x="650.0" y="685.0" width="300" height="100" rx="22" class="orange"/><text x="674.0" y="727.0" class="t">Crystallized</text><text x="674.0" y="757.0" class="s">conhecimento estável</text><rect x="398.8526329025128" y="540.0000000000001" width="300" height="100" rx="22" class="red"/><text x="422.8526329025128" y="582.0000000000001" class="t">Decayed</text><text x="422.8526329025128" y="612.0000000000001" class="s">perda gradual de confiança</text><rect x="398.8526329025128" y="250.0" width="300" height="100" rx="22" class="card"/><text x="422.8526329025128" y="292.0" class="t">Archived</text><text x="422.8526329025128" y="322.0" class="s">retenção auditável</text><path d="M800.0,210.0 C800,450 800,450 1051.1473670974872,245.0" class="muted"/><path d="M1051.1473670974872,355.0 C800,450 800,450 1051.1473670974872,535.0" class="muted"/><path d="M1051.1473670974872,645.0 C800,450 800,450 800.0,680.0" class="muted"/><path d="M800.0,790.0 C800,450 800,450 548.8526329025128,535.0000000000001" class="muted"/><path d="M548.8526329025128,645.0000000000001 C800,450 800,450 548.8526329025128,245.0" class="muted"/><path d="M548.8526329025128,355.0 C800,450 800,450 800.0,100.0" class="muted"/><circle cx="800" cy="450" r="120" fill="#0b1220" stroke="#38bdf8" stroke-width="2.5"/><text x="715" y="435" class="h">HYDRA-OBS</text><text x="690" y="465" class="s">AgentOps · LLMOps</text><text x="708" y="492" class="s">FinOps · Audit</text><rect x="260" y="820" width="90" height="32" rx="16" class="chip"/><text x="273" y="842" class="chipt">logs</text><rect x="410" y="820" width="90" height="32" rx="16" class="chip"/><text x="423" y="842" class="chipt">tracing</text><rect x="560" y="820" width="90" height="32" rx="16" class="chip"/><text x="573" y="842" class="chipt">drift</text><rect x="710" y="820" width="130" height="32" rx="16" class="chip"/><text x="723" y="842" class="chipt">hallucination</text><rect x="860" y="820" width="90" height="32" rx="16" class="chip"/><text x="873" y="842" class="chipt">fallback</text><rect x="1010" y="820" width="90" height="32" rx="16" class="chip"/><text x="1023" y="842" class="chipt">HITL</text><rect x="1160" y="820" width="90" height="32" rx="16" class="chip"/><text x="1173" y="842" class="chipt">policies</text></svg>