<svg viewBox="0 0 1400 360" xmlns="http://www.w3.org/2000/svg" font-family="Segoe UI, -apple-system, Helvetica, Arial, sans-serif">
<defs>
<linearGradient id="bgHero" x1="0" y1="0" x2="1" y2="1">
<stop offset="0%" stop-color="#0A0F1E"/><stop offset="55%" stop-color="#0D1428"/><stop offset="100%" stop-color="#131A33"/>
</linearGradient>
<radialGradient id="glowV" cx="15%" cy="20%" r="60%">
<stop offset="0%" stop-color="#7C6CF0" stop-opacity="0.35"/><stop offset="100%" stop-color="#7C6CF0" stop-opacity="0"/>
</radialGradient>
<radialGradient id="glowC" cx="90%" cy="85%" r="55%">
<stop offset="0%" stop-color="#2FD9E8" stop-opacity="0.28"/><stop offset="100%" stop-color="#2FD9E8" stop-opacity="0"/>
</radialGradient>
</defs>
<rect width="1400" height="360" fill="url(#bgHero)"/>
<rect width="1400" height="360" fill="url(#glowV)"/>
<rect width="1400" height="360" fill="url(#glowC)"/>
<line x1="1015" y1="82" x2="1123" y2="142" stroke="#2FD9E8" stroke-opacity="0.18" stroke-width="1"/>
<line x1="1015" y1="82" x2="913" y2="103" stroke="#2FD9E8" stroke-opacity="0.18" stroke-width="1"/>
<line x1="1015" y1="82" x2="924" y2="73" stroke="#2FD9E8" stroke-opacity="0.18" stroke-width="1"/>
<line x1="1015" y1="82" x2="1129" y2="58" stroke="#2FD9E8" stroke-opacity="0.18" stroke-width="1"/>
<line x1="1015" y1="82" x2="1010" y2="204" stroke="#2FD9E8" stroke-opacity="0.18" stroke-width="1"/>
<line x1="1015" y1="82" x2="1081" y2="124" stroke="#2FD9E8" stroke-opacity="0.18" stroke-width="1"/>
<line x1="1015" y1="82" x2="974" y2="201" stroke="#2FD9E8" stroke-opacity="0.18" stroke-width="1"/>
<line x1="1182" y1="60" x2="1123" y2="142" stroke="#2FD9E8" stroke-opacity="0.18" stroke-width="1"/>
<line x1="1182" y1="60" x2="1144" y2="151" stroke="#2FD9E8" stroke-opacity="0.18" stroke-width="1"/>
<line x1="1182" y1="60" x2="1288" y2="121" stroke="#2FD9E8" stroke-opacity="0.18" stroke-width="1"/>
<line x1="1182" y1="60" x2="1176" y2="144" stroke="#2FD9E8" stroke-opacity="0.18" stroke-width="1"/>
<line x1="1182" y1="60" x2="1129" y2="58" stroke="#2FD9E8" stroke-opacity="0.18" stroke-width="1"/>
<line x1="1182" y1="60" x2="1197" y2="160" stroke="#2FD9E8" stroke-opacity="0.18" stroke-width="1"/>
<line x1="1182" y1="60" x2="1081" y2="124" stroke="#2FD9E8" stroke-opacity="0.18" stroke-width="1"/>
<line x1="1182" y1="60" x2="1222" y2="121" stroke="#2FD9E8" stroke-opacity="0.18" stroke-width="1"/>
<line x1="1123" y1="142" x2="1144" y2="151" stroke="#2FD9E8" stroke-opacity="0.18" stroke-width="1"/>
<line x1="1123" y1="142" x2="1176" y2="144" stroke="#2FD9E8" stroke-opacity="0.18" stroke-width="1"/>
<line x1="1123" y1="142" x2="1129" y2="58" stroke="#2FD9E8" stroke-opacity="0.18" stroke-width="1"/>
<line x1="1123" y1="142" x2="1197" y2="160" stroke="#2FD9E8" stroke-opacity="0.18" stroke-width="1"/>
<line x1="1123" y1="142" x2="1010" y2="204" stroke="#2FD9E8" stroke-opacity="0.18" stroke-width="1"/>
<line x1="1123" y1="142" x2="1081" y2="124" stroke="#2FD9E8" stroke-opacity="0.18" stroke-width="1"/>
<line x1="1123" y1="142" x2="1222" y2="121" stroke="#2FD9E8" stroke-opacity="0.18" stroke-width="1"/>
<line x1="880" y1="182" x2="869" y2="161" stroke="#2FD9E8" stroke-opacity="0.18" stroke-width="1"/>
<line x1="880" y1="182" x2="886" y2="65" stroke="#2FD9E8" stroke-opacity="0.18" stroke-width="1"/>
<line x1="880" y1="182" x2="913" y2="103" stroke="#2FD9E8" stroke-opacity="0.18" stroke-width="1"/>
<line x1="880" y1="182" x2="924" y2="73" stroke="#2FD9E8" stroke-opacity="0.18" stroke-width="1"/>
<line x1="880" y1="182" x2="942" y2="203" stroke="#2FD9E8" stroke-opacity="0.18" stroke-width="1"/>
<line x1="880" y1="182" x2="880" y2="98" stroke="#2FD9E8" stroke-opacity="0.18" stroke-width="1"/>
<line x1="880" y1="182" x2="974" y2="201" stroke="#2FD9E8" stroke-opacity="0.18" stroke-width="1"/>
<line x1="869" y1="161" x2="886" y2="65" stroke="#2FD9E8" stroke-opacity="0.18" stroke-width="1"/>
<line x1="869" y1="161" x2="913" y2="103" stroke="#2FD9E8" stroke-opacity="0.18" stroke-width="1"/>
<line x1="869" y1="161" x2="924" y2="73" stroke="#2FD9E8" stroke-opacity="0.18" stroke-width="1"/>
<line x1="869" y1="161" x2="942" y2="203" stroke="#2FD9E8" stroke-opacity="0.18" stroke-width="1"/>
<line x1="869" y1="161" x2="880" y2="98" stroke="#2FD9E8" stroke-opacity="0.18" stroke-width="1"/>
<line x1="869" y1="161" x2="974" y2="201" stroke="#2FD9E8" stroke-opacity="0.18" stroke-width="1"/>
<line x1="886" y1="65" x2="913" y2="103" stroke="#2FD9E8" stroke-opacity="0.18" stroke-width="1"/>
<line x1="886" y1="65" x2="924" y2="73" stroke="#2FD9E8" stroke-opacity="0.18" stroke-width="1"/>
<line x1="886" y1="65" x2="880" y2="98" stroke="#2FD9E8" stroke-opacity="0.18" stroke-width="1"/>
<line x1="1067" y1="272" x2="1170" y2="305" stroke="#2FD9E8" stroke-opacity="0.18" stroke-width="1"/>
<line x1="1067" y1="272" x2="1007" y2="269" stroke="#2FD9E8" stroke-opacity="0.18" stroke-width="1"/>
<line x1="1067" y1="272" x2="1010" y2="204" stroke="#2FD9E8" stroke-opacity="0.18" stroke-width="1"/>
<line x1="1067" y1="272" x2="974" y2="201" stroke="#2FD9E8" stroke-opacity="0.18" stroke-width="1"/>
<line x1="1067" y1="272" x2="1118" y2="285" stroke="#2FD9E8" stroke-opacity="0.18" stroke-width="1"/>
<line x1="913" y1="103" x2="924" y2="73" stroke="#2FD9E8" stroke-opacity="0.18" stroke-width="1"/>
<line x1="913" y1="103" x2="942" y2="203" stroke="#2FD9E8" stroke-opacity="0.18" stroke-width="1"/>
<line x1="913" y1="103" x2="880" y2="98" stroke="#2FD9E8" stroke-opacity="0.18" stroke-width="1"/>
<line x1="913" y1="103" x2="974" y2="201" stroke="#2FD9E8" stroke-opacity="0.18" stroke-width="1"/>
<line x1="1170" y1="305" x2="1255" y2="236" stroke="#2FD9E8" stroke-opacity="0.18" stroke-width="1"/>
<line x1="1170" y1="305" x2="1118" y2="285" stroke="#2FD9E8" stroke-opacity="0.18" stroke-width="1"/>
<line x1="1144" y1="151" x2="1176" y2="144" stroke="#2FD9E8" stroke-opacity="0.18" stroke-width="1"/>
<line x1="1144" y1="151" x2="1129" y2="58" stroke="#2FD9E8" stroke-opacity="0.18" stroke-width="1"/>
<line x1="1144" y1="151" x2="1197" y2="160" stroke="#2FD9E8" stroke-opacity="0.18" stroke-width="1"/>
<line x1="1144" y1="151" x2="1081" y2="124" stroke="#2FD9E8" stroke-opacity="0.18" stroke-width="1"/>
<line x1="1144" y1="151" x2="1222" y2="121" stroke="#2FD9E8" stroke-opacity="0.18" stroke-width="1"/>
<line x1="1348" y1="53" x2="1288" y2="121" stroke="#2FD9E8" stroke-opacity="0.18" stroke-width="1"/>
<line x1="1348" y1="53" x2="1350" y2="73" stroke="#2FD9E8" stroke-opacity="0.18" stroke-width="1"/>
<line x1="1288" y1="121" x2="1176" y2="144" stroke="#2FD9E8" stroke-opacity="0.18" stroke-width="1"/>
<line x1="1288" y1="121" x2="1197" y2="160" stroke="#2FD9E8" stroke-opacity="0.18" stroke-width="1"/>
<line x1="1288" y1="121" x2="1255" y2="236" stroke="#2FD9E8" stroke-opacity="0.18" stroke-width="1"/>
<line x1="1288" y1="121" x2="1222" y2="121" stroke="#2FD9E8" stroke-opacity="0.18" stroke-width="1"/>
<line x1="1288" y1="121" x2="1350" y2="73" stroke="#2FD9E8" stroke-opacity="0.18" stroke-width="1"/>
<line x1="924" y1="73" x2="880" y2="98" stroke="#2FD9E8" stroke-opacity="0.18" stroke-width="1"/>
<line x1="1007" y1="269" x2="942" y2="203" stroke="#2FD9E8" stroke-opacity="0.18" stroke-width="1"/>
<line x1="1007" y1="269" x2="1010" y2="204" stroke="#2FD9E8" stroke-opacity="0.18" stroke-width="1"/>
<line x1="1007" y1="269" x2="974" y2="201" stroke="#2FD9E8" stroke-opacity="0.18" stroke-width="1"/>
<line x1="1007" y1="269" x2="1118" y2="285" stroke="#2FD9E8" stroke-opacity="0.18" stroke-width="1"/>
<line x1="942" y1="203" x2="880" y2="98" stroke="#2FD9E8" stroke-opacity="0.18" stroke-width="1"/>
<line x1="942" y1="203" x2="1010" y2="204" stroke="#2FD9E8" stroke-opacity="0.18" stroke-width="1"/>
<line x1="942" y1="203" x2="974" y2="201" stroke="#2FD9E8" stroke-opacity="0.18" stroke-width="1"/>
<line x1="1176" y1="144" x2="1129" y2="58" stroke="#2FD9E8" stroke-opacity="0.18" stroke-width="1"/>
<line x1="1176" y1="144" x2="1197" y2="160" stroke="#2FD9E8" stroke-opacity="0.18" stroke-width="1"/>
<line x1="1176" y1="144" x2="1081" y2="124" stroke="#2FD9E8" stroke-opacity="0.18" stroke-width="1"/>
<line x1="1176" y1="144" x2="1255" y2="236" stroke="#2FD9E8" stroke-opacity="0.18" stroke-width="1"/>
<line x1="1176" y1="144" x2="1222" y2="121" stroke="#2FD9E8" stroke-opacity="0.18" stroke-width="1"/>
<line x1="1129" y1="58" x2="1197" y2="160" stroke="#2FD9E8" stroke-opacity="0.18" stroke-width="1"/>
<line x1="1129" y1="58" x2="1081" y2="124" stroke="#2FD9E8" stroke-opacity="0.18" stroke-width="1"/>
<line x1="1129" y1="58" x2="1222" y2="121" stroke="#2FD9E8" stroke-opacity="0.18" stroke-width="1"/>
<line x1="1197" y1="160" x2="1081" y2="124" stroke="#2FD9E8" stroke-opacity="0.18" stroke-width="1"/>
<line x1="1197" y1="160" x2="1255" y2="236" stroke="#2FD9E8" stroke-opacity="0.18" stroke-width="1"/>
<line x1="1197" y1="160" x2="1222" y2="121" stroke="#2FD9E8" stroke-opacity="0.18" stroke-width="1"/>
<line x1="1010" y1="204" x2="1081" y2="124" stroke="#2FD9E8" stroke-opacity="0.18" stroke-width="1"/>
<line x1="1010" y1="204" x2="974" y2="201" stroke="#2FD9E8" stroke-opacity="0.18" stroke-width="1"/>
<line x1="1255" y1="236" x2="1222" y2="121" stroke="#2FD9E8" stroke-opacity="0.18" stroke-width="1"/>
<circle cx="1015" cy="82" r="2.4" fill="#2FD9E8" fill-opacity="0.55"/>
<circle cx="1182" cy="60" r="2.4" fill="#2FD9E8" fill-opacity="0.55"/>
<circle cx="1123" cy="142" r="2.4" fill="#2FD9E8" fill-opacity="0.55"/>
<circle cx="880" cy="182" r="2.4" fill="#2FD9E8" fill-opacity="0.55"/>
<circle cx="869" cy="161" r="2.4" fill="#2FD9E8" fill-opacity="0.55"/>
<circle cx="886" cy="65" r="2.4" fill="#2FD9E8" fill-opacity="0.55"/>
<circle cx="1067" cy="272" r="2.4" fill="#2FD9E8" fill-opacity="0.55"/>
<circle cx="913" cy="103" r="2.4" fill="#2FD9E8" fill-opacity="0.55"/>
<circle cx="1170" cy="305" r="2.4" fill="#2FD9E8" fill-opacity="0.55"/>
<circle cx="1144" cy="151" r="2.4" fill="#2FD9E8" fill-opacity="0.55"/>
<circle cx="1348" cy="53" r="2.4" fill="#2FD9E8" fill-opacity="0.55"/>
<circle cx="1288" cy="121" r="2.4" fill="#2FD9E8" fill-opacity="0.55"/>
<circle cx="924" cy="73" r="2.4" fill="#2FD9E8" fill-opacity="0.55"/>
<circle cx="1007" cy="269" r="2.4" fill="#2FD9E8" fill-opacity="0.55"/>
<circle cx="942" cy="203" r="2.4" fill="#2FD9E8" fill-opacity="0.55"/>
<circle cx="1176" cy="144" r="2.4" fill="#2FD9E8" fill-opacity="0.55"/>
<circle cx="1129" cy="58" r="2.4" fill="#2FD9E8" fill-opacity="0.55"/>
<circle cx="880" cy="98" r="2.4" fill="#2FD9E8" fill-opacity="0.55"/>
<circle cx="1197" cy="160" r="2.4" fill="#2FD9E8" fill-opacity="0.55"/>
<circle cx="1010" cy="204" r="2.4" fill="#2FD9E8" fill-opacity="0.55"/>
<circle cx="1081" cy="124" r="2.4" fill="#2FD9E8" fill-opacity="0.55"/>
<circle cx="1255" cy="236" r="2.4" fill="#2FD9E8" fill-opacity="0.55"/>
<circle cx="974" cy="201" r="2.4" fill="#2FD9E8" fill-opacity="0.55"/>
<circle cx="1118" cy="285" r="2.4" fill="#2FD9E8" fill-opacity="0.55"/>
<circle cx="1222" cy="121" r="2.4" fill="#2FD9E8" fill-opacity="0.55"/>
<circle cx="1350" cy="73" r="2.4" fill="#2FD9E8" fill-opacity="0.55"/>
<text x="70" y="118" font-family="SFMono-Regular, Consolas, 'Liberation Mono', monospace" font-size="14" letter-spacing="3" fill="#2FD9E8">BEYOND MODELS · GOVERNED COGNITIVE OPERATIONS</text>
<text x="70" y="172" font-size="46" font-weight="700" fill="#EDF1FA">Arquitetura Operacional Cognitiva</text>
<text x="70" y="212" font-size="19" fill="#A9B4CE">Inferência, decisão, conhecimento, governança e operação como um sistema integrado</text>
<line x1="70" y1="250" x2="900" y2="250" stroke="#2FD9E8" stroke-opacity="0.3" stroke-width="1.5"/>
<text x="70" y="292" font-family="SFMono-Regular, Consolas, 'Liberation Mono', monospace" font-size="17" font-weight="700" fill="#2FD9E8">Inferência</text>
<text x="200.0" y="292" font-family="SFMono-Regular, Consolas, 'Liberation Mono', monospace" font-size="17" font-weight="700" fill="#A9B4CE"> + </text>
<text x="241.8" y="292" font-family="SFMono-Regular, Consolas, 'Liberation Mono', monospace" font-size="17" font-weight="700" fill="#7C6CF0">Decisão</text>
<text x="334.0" y="292" font-family="SFMono-Regular, Consolas, 'Liberation Mono', monospace" font-size="17" font-weight="700" fill="#A9B4CE"> + </text>
<text x="375.8" y="292" font-family="SFMono-Regular, Consolas, 'Liberation Mono', monospace" font-size="17" font-weight="700" fill="#2FD9E8">Conhecimento</text>
<text x="531.0" y="292" font-family="SFMono-Regular, Consolas, 'Liberation Mono', monospace" font-size="17" font-weight="700" fill="#A9B4CE"> + </text>
<text x="572.8" y="292" font-family="SFMono-Regular, Consolas, 'Liberation Mono', monospace" font-size="17" font-weight="700" fill="#7C6CF0">Governança</text>
<text x="702.8" y="292" font-family="SFMono-Regular, Consolas, 'Liberation Mono', monospace" font-size="17" font-weight="700" fill="#A9B4CE"> + </text>
<text x="744.5999999999999" y="292" font-family="SFMono-Regular, Consolas, 'Liberation Mono', monospace" font-size="17" font-weight="700" fill="#2FD9E8">Operação</text>
</svg>